<?xml version="1.0" encoding="utf-8"?>
<!-- Generator: Adobe Illustrator 21.0.0, SVG Export Plug-In . SVG Version: 6.00 Build 0)  -->
<svg version="1.1" id="Calque_1" xmlns="http://www.w3.org/2000/svg" xmlns:xlink="http://www.w3.org/1999/xlink" x="0px" y="0px" width="300" height="200"
	 viewBox="0 0 197.5 87.3" style="enable-background:new 0 0 197.5 87.3;" xml:space="preserve">
<style type="text/css">
	.st0{fill:#020203;}
	.st1{fill:#5099D2;}
	.st2{fill:none;stroke:#020203;stroke-width:1.3;stroke-miterlimit:10;}
	.st3{fill-rule:evenodd;clip-rule:evenodd;}
	.st4{fill:none;stroke:#13131B;stroke-width:1.503;stroke-linecap:round;stroke-linejoin:round;stroke-miterlimit:10;}
	.st5{fill:none;stroke:#020203;stroke-width:1.3665;stroke-miterlimit:10;}
	.st6{fill:#C99F43;}
	.st7{fill:#FFFFFF;}
</style>
<g>
	<g>
		<path class="st0" d="M56.2,54.1v1.3H52v3.1h4.2v1.3H52v3.1h4.2v1.3h-5.5V54.1H56.2z M53.8,51.7h1.6l-1.7,1.8h-1.3L53.8,51.7z"/>
		<path class="st0" d="M69.5,61.8l1,0.9c-1.2,1.1-2.5,1.6-3.8,1.6c-1.4,0-2.7-0.5-3.7-1.5s-1.5-2.2-1.5-3.7c0-1.4,0.5-2.7,1.5-3.7
			s2.2-1.5,3.7-1.5c1.3,0,2.6,0.5,3.8,1.6l-1,0.9c-0.9-0.8-1.8-1.2-2.8-1.2c-1.1,0-2,0.4-2.7,1.1c-0.8,0.8-1.1,1.7-1.1,2.7
			c0,1.1,0.4,2,1.1,2.7c0.8,0.8,1.7,1.1,2.7,1.1C67.6,63,68.6,62.6,69.5,61.8z"/>
		<path class="st0" d="M84.5,55.5c1,1,1.5,2.2,1.5,3.7s-0.5,2.7-1.5,3.7s-2.2,1.5-3.7,1.5s-2.7-0.5-3.7-1.5s-1.5-2.2-1.5-3.7
			s0.5-2.7,1.5-3.7s2.2-1.5,3.7-1.5S83.4,54.5,84.5,55.5z M80.8,55.3c-1.1,0-2,0.4-2.7,1.1c-0.8,0.8-1.1,1.7-1.1,2.7s0.4,2,1.1,2.7
			c0.8,0.8,1.7,1.1,2.7,1.1c1.1,0,2-0.4,2.7-1.1c0.8-0.8,1.1-1.7,1.1-2.7s-0.4-2-1.1-2.7C82.8,55.7,81.8,55.3,80.8,55.3z"/>
		<path class="st0" d="M91.4,64.2V54.1h1.3v8.8h3.6v1.3H91.4z"/>
		<path class="st0" d="M107.1,54.1v1.3h-4.2v3.1h4.2v1.3h-4.2v3.1h4.2v1.3h-5.5V54.1H107.1z"/>
		<path class="st0" d="M120.4,54.1c1.7,0,2.9,0.5,3.9,1.4c1,1,1.5,2.2,1.5,3.7c0,1.4-0.5,2.7-1.5,3.7c-0.9,0.9-2.2,1.4-3.9,1.4h-1
			V54.1H120.4z M120.8,55.4v7.5c1,0,1.9-0.3,2.6-1c0.8-0.8,1.1-1.7,1.1-2.7c0-1.1-0.4-2-1.1-2.7C122.7,55.8,121.8,55.4,120.8,55.4z"
			/>
		<path class="st0" d="M136.6,54.1v1.3h-4.2v3.1h4.2v1.3h-4.2v3.1h4.2v1.3h-5.5V54.1H136.6z"/>
		<path class="st0" d="M150.3,61v3.3H149V54.1h2.9c0.8,0.1,1.5,0.4,2.1,1c0.7,0.7,1,1.5,1,2.4c0,1-0.3,1.8-1,2.4s-1.5,1-2.4,1H150.3
			z M150.3,55.4v4.3h1.2c0.6,0,1.1-0.2,1.5-0.6s0.6-0.9,0.6-1.5c0-0.6-0.2-1.1-0.6-1.5s-0.9-0.6-1.5-0.6H150.3z"/>
		<path class="st0" d="M162.9,54.1l3.7,10.2h-1.4l-1.3-3.6h-2.7l-1.3,3.6h-1.4l3.7-10.2H162.9z M163.4,59.3l-0.9-2.4l-0.9,2.4H163.4
			z"/>
		<path class="st0" d="M174.1,61h-1.2v3.3h-1.3V54.1h2.9c0.8,0.1,1.5,0.4,2.1,1c0.7,0.7,1,1.5,1,2.4c0,1-0.3,1.8-1,2.4
			c-0.5,0.5-0.8,0.7-1.1,0.8l2.3,3.5h-1.6L174.1,61z M172.9,55.4v4.3h1.2c0.6,0,1.1-0.2,1.5-0.6s0.6-0.9,0.6-1.5
			c0-0.6-0.2-1.1-0.6-1.5s-0.9-0.6-1.5-0.6H172.9z"/>
		<path class="st0" d="M184.1,54.1v10.2h-1.3V54.1H184.1z"/>
		<path class="st0" d="M192.5,59c-0.7-0.2-1.3-0.6-1.7-1s-0.7-1-0.7-1.7c0-0.6,0.2-1.2,0.7-1.7c0.5-0.5,1-0.7,1.7-0.7
			c0.7,0,1.2,0.2,1.7,0.7c0.3,0.3,0.5,0.7,0.7,1.2l-1.2,0.5c-0.1-0.4-0.3-0.6-0.4-0.8c-0.2-0.2-0.5-0.3-0.7-0.3
			c-0.3,0-0.5,0.1-0.8,0.3s-0.3,0.5-0.3,0.8c0,0.3,0.1,0.5,0.3,0.8c0.2,0.2,0.6,0.4,1,0.6c0.8,0.3,1.5,0.7,2,1.2
			c0.6,0.6,0.9,1.4,0.9,2.2c0,0.9-0.3,1.6-0.9,2.2s-1.4,0.9-2.2,0.9c-0.9,0-1.6-0.3-2.2-0.9c-0.5-0.5-0.8-1.2-0.9-2l1.3-0.5
			c0.1,0.7,0.3,1.3,0.6,1.6c0.4,0.4,0.8,0.5,1.3,0.5c0.5,0,0.9-0.2,1.3-0.5c0.4-0.4,0.5-0.8,0.5-1.3c0-0.5-0.2-0.9-0.5-1.3
			C193.4,59.5,193,59.2,192.5,59z"/>
	</g>
	<g>
		<path class="st1" d="M52,76.4c1.5,0,2.7,0.4,3.6,1.3c0.9,0.9,1.4,2.1,1.4,3.4c0,1.3-0.5,2.5-1.4,3.4c-0.9,0.9-2,1.3-3.6,1.3h-0.9
			v-9.4H52z M52.4,77.7v6.9c1,0,1.8-0.3,2.4-0.9c0.7-0.7,1-1.5,1-2.5c0-1-0.3-1.8-1-2.5C54.1,78,53.3,77.7,52.4,77.7z"/>
		<path class="st1" d="M63.6,76.4v1.2h-3.8v2.9h3.8v1.2h-3.8v2.9h3.8v1.2h-5.1v-9.4H63.6z"/>
		<path class="st1" d="M67.6,81c-0.7-0.2-1.2-0.5-1.6-1s-0.6-0.9-0.6-1.5c0-0.6,0.2-1.1,0.6-1.5s0.9-0.6,1.6-0.6
			c0.6,0,1.1,0.2,1.5,0.6c0.2,0.2,0.4,0.6,0.6,1.1l-1.1,0.4c-0.1-0.4-0.3-0.6-0.4-0.7c-0.2-0.2-0.4-0.3-0.7-0.3
			c-0.3,0-0.5,0.1-0.7,0.3s-0.3,0.4-0.3,0.7s0.1,0.5,0.3,0.7c0.2,0.2,0.5,0.4,0.9,0.6c0.7,0.2,1.4,0.6,1.9,1.1
			c0.6,0.6,0.9,1.3,0.9,2.1s-0.3,1.5-0.9,2.1s-1.3,0.9-2.1,0.9c-0.8,0-1.5-0.3-2.1-0.9c-0.5-0.5-0.7-1.1-0.9-1.9l1.2-0.4
			c0.1,0.7,0.3,1.2,0.5,1.5c0.3,0.3,0.7,0.5,1.2,0.5s0.9-0.2,1.2-0.5s0.5-0.7,0.5-1.2c0-0.5-0.2-0.9-0.5-1.2
			C68.5,81.5,68.1,81.2,67.6,81z"/>
		<path class="st1" d="M77.4,76.4l3,5.3l3-5.3h1.1v9.4h-1.2V79l-2.9,5.1L77.5,79v6.8h-1.2v-9.4H77.4z"/>
		<path class="st1" d="M91.7,76.4v1.2h-3.8v2.9h3.8v1.2h-3.8v2.9h3.8v1.2h-5.1v-9.4H91.7z M89.5,74.2H91l-1.6,1.6h-1.2L89.5,74.2z"
			/>
		<path class="st1" d="M96.2,77.7v8.2H95v-8.2h-2.2v-1.2h5.6v1.2H96.2z"/>
		<path class="st1" d="M100.9,76.4v9.4h-1.2v-9.4H100.9z"/>
		<path class="st1" d="M107.9,76.4v1.2h-3.8v2.9h3.8v1.2h-3.8v2.9h3.8v1.2h-5.1v-9.4H107.9z"/>
		<path class="st1" d="M111.9,82.8h-1.1v3h-1.2v-9.4h2.7c0.8,0.1,1.4,0.4,1.9,0.9c0.6,0.6,0.9,1.4,0.9,2.3c0,0.9-0.3,1.6-0.9,2.3
			c-0.4,0.4-0.8,0.7-1,0.7l2.1,3.2h-1.5L111.9,82.8z M110.8,77.7v3.9h1.1c0.5,0,1-0.2,1.4-0.6s0.6-0.9,0.6-1.4c0-0.5-0.2-1-0.6-1.4
			s-0.8-0.6-1.4-0.6H110.8z"/>
		<path class="st1" d="M118.9,81c-0.7-0.2-1.2-0.5-1.6-1s-0.6-0.9-0.6-1.5c0-0.6,0.2-1.1,0.6-1.5s0.9-0.6,1.6-0.6
			c0.6,0,1.1,0.2,1.5,0.6c0.2,0.2,0.4,0.6,0.6,1.1l-1.1,0.4c-0.1-0.4-0.3-0.6-0.4-0.7c-0.2-0.2-0.4-0.3-0.7-0.3
			c-0.3,0-0.5,0.1-0.7,0.3s-0.3,0.4-0.3,0.7s0.1,0.5,0.3,0.7c0.2,0.2,0.5,0.4,0.9,0.6c0.7,0.2,1.4,0.6,1.9,1.1
			c0.6,0.6,0.9,1.3,0.9,2.1s-0.3,1.5-0.9,2.1s-1.3,0.9-2.1,0.9c-0.8,0-1.5-0.3-2.1-0.9c-0.5-0.5-0.7-1.1-0.9-1.9l1.2-0.4
			c0.1,0.7,0.3,1.2,0.5,1.5c0.3,0.3,0.7,0.5,1.2,0.5s0.9-0.2,1.2-0.5s0.5-0.7,0.5-1.2c0-0.5-0.2-0.9-0.5-1.2
			C119.8,81.5,119.4,81.2,118.9,81z"/>
		<path class="st1" d="M128.1,76.4c1.5,0,2.7,0.4,3.6,1.3c0.9,0.9,1.4,2.1,1.4,3.4c0,1.3-0.5,2.5-1.4,3.4c-0.9,0.9-2,1.3-3.6,1.3
			h-0.9v-9.4H128.1z M128.4,77.7v6.9c1,0,1.8-0.3,2.4-0.9c0.7-0.7,1-1.5,1-2.5c0-1-0.3-1.8-1-2.5C130.2,78,129.4,77.7,128.4,77.7z"
			/>
		<path class="st1" d="M139.7,76.4v1.2h-3.8v2.9h3.8v1.2h-3.8v2.9h3.8v1.2h-5.1v-9.4H139.7z"/>
		<path class="st1" d="M145.5,85.8v-9.4h1.2v8.2h3.4v1.2H145.5z"/>
		<path class="st1" d="M155.1,76.4l3.4,9.4h-1.3l-1.2-3.3h-2.5l-1.2,3.3H151l3.4-9.4H155.1z M155.5,81.3l-0.8-2.2l-0.8,2.2H155.5z"
			/>
		<path class="st1" d="M166.6,77.7v8.2h-1.2v-8.2h-2.2v-1.2h5.6v1.2H166.6z"/>
		<path class="st1" d="M173.1,76.4l3.4,9.4h-1.3l-1.2-3.3h-2.5l-1.2,3.3H169l3.4-9.4H173.1z M173.5,81.3l-0.8-2.2l-0.8,2.2H173.5z"
			/>
		<path class="st1" d="M179.6,76.4c0.5,0,1,0.2,1.4,0.6s0.6,0.8,0.6,1.4c0,0.6-0.3,0.9-0.8,1c0.4,0.1,0.9,0.3,1.4,0.9
			s0.8,1.2,0.8,2.2s-0.3,1.7-1,2.4c-0.6,0.6-1.2,0.9-1.8,1v0h-2.4v-9.4H179.6z M178.9,77.7v1.5h0.8c0.2,0,0.3-0.1,0.5-0.2
			c0.1-0.1,0.2-0.3,0.2-0.5s-0.1-0.4-0.2-0.5s-0.3-0.2-0.6-0.2H178.9z M178.9,80.4v4.2h1.2v0c0.3,0,0.6-0.2,0.9-0.6
			c0.4-0.4,0.6-0.9,0.6-1.5c0-0.6-0.2-1.1-0.6-1.5s-0.9-0.6-1.5-0.6H178.9z"/>
		<path class="st1" d="M184.4,85.8v-9.4h1.2v8.2h3.4v1.2H184.4z"/>
		<path class="st1" d="M195.4,76.4v1.2h-3.8v2.9h3.8v1.2h-3.8v2.9h3.8v1.2h-5.1v-9.4H195.4z"/>
	</g>
	<g>
		<path class="st0" d="M67.7,9.9v4H54.9v9.6h12.8v4H54.9v9.6h12.8v4.1H50.9V9.9H67.7z"/>
		<path class="st0" d="M93.2,31.2v10h-4V9.9H98c2.5,0.3,4.6,1.4,6.4,3.1c2.1,2.1,3.1,4.6,3.1,7.5c0,2.9-1,5.5-3.1,7.5
			s-4.6,3.1-7.5,3.1H93.2z M93.2,14v13.1h3.7c1.8,0,3.3-0.6,4.6-1.9s1.9-2.8,1.9-4.7c0-1.8-0.6-3.4-1.9-4.6S98.6,14,96.8,14H93.2z"
			/>
		<path class="st0" d="M132.1,9.9l10.1,17.5l10.1-17.5h3.7v31.3h-4V18.6l-9.7,16.9l-9.8-16.9v22.6h-4V9.9H132.1z"/>
		<path class="st0" d="M188.3,13.9v27.2h-4.1V13.9h-7.3v-4h18.6v4H188.3z"/>
	</g>
	<line class="st2" x1="-0.3" y1="72.7" x2="39.1" y2="72.7"/>
	<g>
		<g>
			<path class="st3" d="M24.8,59.8c0.1,0.2,0.1,0.3,0.1,0.4c1,2.5,2.3,4.8,3.8,6.8c0.1,0.2,0.2,0.5,0.3,0.8c0,0.4-0.2,0.7-0.5,0.8
				c-0.3,0.1-0.6,0.1-0.8-0.2c-0.6-0.8-1.2-1.7-1.7-2.6c-1.1-1.7-1.9-3.6-2.7-5.6c-0.1-0.3-0.3-0.4-0.5-0.4c-2.3,0-4.6,0-6.9,0
				c-0.3,0-0.4,0.1-0.5,0.4c-1.1,2.9-2.5,5.5-4.2,7.8c-0.1,0.1-0.2,0.2-0.2,0.3c-0.3,0.4-0.7,0.4-1,0.1c-0.3-0.3-0.3-0.9-0.1-1.3
				c0.5-0.7,0.9-1.4,1.4-2.1c1-1.5,1.8-3.2,2.5-4.9c0-0.1,0.1-0.2,0.1-0.3c-0.6,0-1.1,0-1.6,0c-0.5,0-0.8-0.4-0.8-0.9
				c0-0.5,0.3-0.9,0.8-0.9c0.7,0,1.4,0,2.1,0c0.1,0,0.3-0.1,0.3-0.2c0.5-1.7,1-3.4,1.6-5.2c-0.3,0-0.4,0-0.6,0
				c-0.5,0-0.8-0.4-0.8-0.9c0-0.5,0.3-0.9,0.8-0.9c0.3,0,0.6,0,0.8,0c0,0,0,0,0.1,0c0.7-3.6,1.2-7.4,1.5-11.2c-0.2,0-0.4,0-0.6,0
				c-0.5,0-0.8-0.3-0.9-0.8c0-0.5,0.2-0.9,0.8-1c0-0.6,0-1.1,0-1.7c0-0.3,0-0.6,0-0.9c0-0.6,0.3-0.9,0.8-1c0.2,0,0.3,0,0.5,0
				c0-0.6,0-1.2,0-1.8c0-0.2,0-0.4,0-0.6c0-0.6,0.3-1,0.7-1c0.4,0,0.7,0.4,0.7,1c0,0.7,0,1.3,0,2c0,0.1,0,0.3,0,0.4
				c0.2,0,0.4,0,0.5,0c0.5,0,0.8,0.4,0.8,1c0,0.9,0,1.7,0,2.6c0.5,0.2,0.7,0.4,0.7,0.9c0,0.5-0.3,0.9-0.7,1c-0.2,0-0.5,0-0.7,0
				c0.3,3.8,0.7,7.5,1.5,11.2c0.3,0,0.7,0,1,0c0.5,0,0.8,0.4,0.8,0.9c0,0.5-0.3,0.9-0.8,0.9c-0.2,0-0.4,0-0.6,0
				c0.3,1.2,0.6,2.4,1,3.5c0.2,0.5,0.4,1.1,0.5,1.6c0.1,0.2,0.2,0.3,0.3,0.3c0.7,0,1.4,0,2.1,0c0.5,0,0.8,0.4,0.8,0.9
				c0,0.5-0.3,0.8-0.7,0.8C26,59.8,25.5,59.8,24.8,59.8z M22.5,58c0-0.1,0-0.1,0-0.1c-0.5-1.7-0.9-3.4-1.4-5.1
				c-0.1-0.2-0.2-0.2-0.3-0.2c-1,0-1.9,0-2.9,0c-0.2,0-0.3,0.1-0.3,0.3c-0.4,1.5-0.8,3-1.2,4.5c0,0.2-0.1,0.3-0.2,0.6
				C18.3,58,20.4,58,22.5,58z M19.4,41.6c-0.4,2.9-0.8,6-1.2,9.2c0.8,0,1.7,0,2.5,0C20.2,47.6,19.8,44.5,19.4,41.6z M18.8,37.1
				c0.4,0,0.8,0,1.1,0c0-0.4,0-0.7,0-1.1c-0.4,0-0.7,0-1.1,0C18.8,36.4,18.8,36.7,18.8,37.1z"/>
			<path class="st4" d="M23.2,67.5c-3.6-3.6-3.7-4-7.7,0"/>
		</g>
		<g>
			<g>
				<path class="st5" d="M23.5,28.9h-7.6V26l-2-14c0,0,3.2-1.2,5.4-1.2s5.6,1.2,5.6,1.2l-1.5,13.9L23.5,28.9z"/>
				<line class="st5" x1="15.9" y1="26" x2="23.4" y2="26"/>
				<line class="st5" x1="17.1" y1="11.1" x2="18.3" y2="21.1"/>
				<line class="st5" x1="21.7" y1="11.2" x2="21.2" y2="21.1"/>
			</g>
		</g>
	</g>
	<g>
		<polygon class="st6" points="9.7,2.6 10.6,4.2 12.4,4.5 11.1,5.7 11.4,7.5 9.7,6.7 8.1,7.5 8.4,5.7 7.1,4.5 8.9,4.2 		"/>
		<polygon class="st6" points="19.4,0.4 20.2,2 22,2.3 20.7,3.6 21,5.4 19.4,4.5 17.7,5.4 18.1,3.6 16.7,2.3 18.6,2 		"/>
		<polygon class="st6" points="29.2,2.9 30.1,4.5 31.9,4.8 30.6,6.1 30.9,7.9 29.2,7 27.6,7.9 27.9,6.1 26.6,4.8 28.4,4.5 		"/>
	</g>
	<g>
		<g>
			<path class="st7" d="M25.8,77.4c-0.7,0-1.4,0-2.2,0c0,0.4,0,0.8,0,1.2c-0.3,0.1-0.5,0-0.8-0.2c-0.5-0.5-1-0.9-1.6-1.4
				c-0.1-0.1-0.2-0.1-0.3-0.1c-1.8,0-3.5,0-5.3,0c-0.1,0-0.1,0-0.2,0c-0.1,0.6-0.1,1.2,0.2,1.8c-0.1,0-0.2-0.1-0.2-0.1
				c-0.4-0.7-0.9-1.4-1.3-2c-0.9-1.4-2-1.2-3.2-0.6c0.1,0.1,0.1,0.2,0.2,0.3c-1.3-0.5-2.1,0-2.7,1c0,0,0,0,0.1,0.1
				c1.6,1.1,3.2,2.2,4.8,3.3c0.1,0,0.1,0.1,0.2,0.1c2.4,0.9,4.7,1.8,7.1,2.6c0.1,0,0.2,0.1,0.3,0.1c0.8,0,1.6,0,2.4,0
				c0.1,0,0.1,0,0.2,0c0,0.2,0,0.4,0,0.6c0,0.2,0.1,0.2,0.2,0.2c0.6,0,1.1,0,1.7,0c0.1,0,0.1,0,0.2,0c0,0.6,0,1.1,0,1.7
				c1.6,0,3.2,0,4.8,0c0-0.3,0-0.5,0-0.8c-1.3,0-2.6,0-4,0c0-2.3,0-4.7,0-7c1.1,0,2.2,0,3.3,0c0-0.3,0-0.5,0-0.8c-1.1,0-2.2,0-3.3,0
				 M28,84.2c0.2,0,0.4-0.2,0.4-0.4c0-0.2-0.2-0.4-0.4-0.4c-0.2,0-0.4,0.2-0.4,0.4C27.6,84,27.8,84.2,28,84.2z"/>
			<path d="M23.7,78.6c0-0.4,0-0.8,0-1.2c0.7,0,5.2,0,6.3,0c0,0.3,0,0.5,0,0.8c-1.1,0-2.2,0-3.3,0c0,2.3,0,4.6,0,7c1.3,0,2.6,0,4,0
				c0,0.3,0,0.5,0,0.8c-1.6,0-3.2,0-4.8,0c0-0.6,0-1.1,0-1.7c-0.1,0-0.2,0-0.2,0c-0.6,0-1.1,0-1.7,0c-0.2,0-0.2,0-0.2-0.2
				c0-0.2,0-0.4,0-0.6c-0.1,0-0.2,0-0.2,0c-0.8,0-1.6,0-2.4,0c-0.1,0-0.2,0-0.3-0.1c-2.4-0.9-4.7-1.8-7.1-2.6
				c-0.1,0-0.2-0.1-0.2-0.1c-1.6-1.1-3.2-2.2-4.8-3.3c0,0-0.1,0-0.1-0.1c0.7-1,1.5-1.5,2.7-1c-0.1-0.1-0.1-0.2-0.2-0.3
				c1.1-0.6,2.2-0.8,3.2,0.6c0.4,0.7,0.9,1.3,1.3,2c0,0.1,0.1,0.1,0.2,0.1c-0.3-0.6-0.4-1.2-0.2-1.8c0.1,0,0.1,0,0.2,0
				c1.8,0,3.5,0,5.3,0c0.1,0,0.2,0,0.3,0.1c0.5,0.5,1.1,0.9,1.6,1.4C23.1,78.6,23.3,78.7,23.7,78.6z M16.3,77.7c0,0.1,0,0.1,0,0.1
				c0.2,0.5,0.5,0.8,1.1,0.8c0.8,0,1.6,0,2.4,0c0.1,0,0.1,0,0.2,0c0,0.3,0,0.5,0,0.8c0,0-0.1,0-0.1,0c-1.5,0-3,0-4.5,0
				c-0.1,0-0.2,0-0.3-0.1c-1.3-0.8-2.7-1.5-4-2.3C11,77,10.9,77,10.7,76.9c-0.4-0.1-0.7-0.1-1,0.2c0,0,0.1,0,0.1,0.1
				c1.3,0.9,2.7,1.8,4,2.8c0.1,0,0.1,0.1,0.2,0.1c2.3,0.8,4.5,1.7,6.8,2.5c0.1,0,0.2,0.1,0.3,0.1c0.8,0,1.5,0,2.3,0
				c0.1,0,0.1,0,0.2,0c0-1.1,0-2.1,0-3.2c-0.2,0-0.4,0-0.6,0c-0.1,0-0.2,0-0.3-0.1c-0.6-0.5-1.1-1-1.7-1.5c-0.2-0.1-0.3-0.2-0.5-0.2
				c-1.3,0-2.7,0-4,0C16.5,77.7,16.4,77.7,16.3,77.7z M12.2,76.3c0.1,0.2,0.2,0.4,0.3,0.6c0,0.1,0.1,0.1,0.1,0.2
				c0.4,0.3,0.9,0.5,1.3,0.7c0,0,0.1,0,0.2,0.1c-0.2-0.4-0.4-0.7-0.7-1.1c-0.2-0.2-0.4-0.4-0.6-0.5C12.7,76.2,12.5,76.2,12.2,76.3z"
				/>
			<path d="M28,84.2c-0.2,0-0.4-0.2-0.4-0.4c0-0.2,0.2-0.4,0.4-0.4c0.2,0,0.4,0.2,0.4,0.4C28.4,84,28.2,84.2,28,84.2z"/>
			<path class="st7" d="M16.3,77.7c0.1,0,0.2,0,0.3,0c1.3,0,2.7,0,4,0c0.2,0,0.3,0,0.5,0.2c0.5,0.5,1.1,1,1.7,1.5
				c0.1,0.1,0.2,0.1,0.3,0.1c0.2,0,0.4,0,0.6,0c0,1.1,0,2.1,0,3.2c-0.1,0-0.1,0-0.2,0c-0.8,0-1.5,0-2.3,0c-0.1,0-0.2,0-0.3-0.1
				c-2.3-0.8-4.5-1.7-6.8-2.5C14,80,13.9,80,13.8,80c-1.3-0.9-2.7-1.8-4-2.8c0,0-0.1,0-0.1-0.1c0.3-0.3,0.6-0.3,1-0.2
				c0.2,0,0.3,0.1,0.5,0.2c1.3,0.8,2.7,1.5,4,2.3c0.1,0,0.2,0.1,0.3,0.1c1.5,0,3,0,4.5,0c0,0,0,0,0.1,0c0-0.3,0-0.5,0-0.8
				c-0.1,0-0.1,0-0.2,0c-0.8,0-1.6,0-2.4,0c-0.6,0-0.9-0.3-1.1-0.8C16.3,77.8,16.3,77.8,16.3,77.7z"/>
			<path class="st7" d="M12.2,76.3c0.2-0.1,0.4-0.1,0.6,0c0.2,0.1,0.5,0.3,0.6,0.5c0.3,0.3,0.4,0.7,0.7,1.1c-0.1,0-0.1,0-0.2-0.1
				c-0.4-0.2-0.9-0.5-1.3-0.7c-0.1,0-0.1-0.1-0.1-0.2C12.5,76.7,12.4,76.5,12.2,76.3z"/>
		</g>
		<circle class="st6" cx="28" cy="83.8" r="0.6"/>
	</g>
</g>
</svg>
